<?xml version="1.0" standalone="no"?><!DOCTYPE svg PUBLIC "-//W3C//DTD SVG 1.1//EN" "http://www.w3.org/Graphics/SVG/1.1/DTD/svg11.dtd"><svg class="icon" width="200px" height="200.00px" viewBox="0 0 1024 1024" version="1.1" xmlns="http://www.w3.org/2000/svg"><path d="M181.169 170.667a118.154 118.154 0 1 0 236.308 0 118.154 118.154 0 1 0-236.308 0zM661.662 966.236H357.087c-173.292 0-315.077-141.785-315.077-315.077v-10.503c0-173.292 141.785-315.077 315.077-315.077h304.575c173.292 0 315.076 141.785 315.076 315.077v10.503c0 175.918-141.784 315.077-315.076 315.077z" fill="#FFCB24" /><path d="M299.323 333.456c-89.272 0-162.79-73.518-162.79-162.79 0-89.271 73.518-162.79 162.79-162.79 89.272 0 162.79 73.519 162.79 162.79 0 89.272-73.518 162.79-162.79 162.79z m0-273.066c-60.39 0-110.277 49.887-110.277 110.277s49.887 110.277 110.277 110.277S409.6 231.056 409.6 170.667c0-60.39-49.887-110.277-110.277-110.277z m225.805 698.42c-21.005 0-39.384-18.38-39.384-39.384v-52.513c0-21.005 18.38-39.385 39.384-39.385s39.385 18.38 39.385 39.385v52.513c0 21.005-15.754 39.384-39.385 39.384z m220.554-2.625c-21.005 0-39.385-18.38-39.385-39.385v-52.513c0-21.005 18.38-39.384 39.385-39.384s39.385 18.38 39.385 39.384V716.8c0 21.005-18.38 39.385-39.385 39.385z" fill="#333333" /><path d="M669.538 1005.62H346.585c-186.42 0-336.082-154.912-336.082-349.21v-5.251c0-191.672 152.287-349.21 336.082-349.21h322.953c186.421 0 338.708 157.538 338.708 349.21 0 196.923-152.287 354.462-338.708 354.462zM349.21 351.837c-162.79 0-294.072 136.533-294.072 301.949v5.25c0 168.042 131.283 301.95 294.072 301.95h322.954c162.79 0 294.072-136.534 294.072-304.575 0-168.04-131.282-304.574-294.072-304.574H349.21z" fill="#333333" /><path d="M204.8 572.39a94.523 89.272 0 1 0 189.046 0 94.523 89.272 0 1 0-189.046 0z" fill="#FFBD29" /><path d="M299.323 593.395c-21.005 0-36.759-15.754-36.759-36.76v-228.43h76.144v228.43c-2.626 21.006-18.38 36.76-39.385 36.76z" fill="#333333" /></svg>