<?xml version="1.0" standalone="no"?><!DOCTYPE svg PUBLIC "-//W3C//DTD SVG 1.1//EN" "http://www.w3.org/Graphics/SVG/1.1/DTD/svg11.dtd"><svg class="icon" width="200px" height="200.00px" viewBox="0 0 1024 1024" version="1.1" xmlns="http://www.w3.org/2000/svg"><path d="M308.882286 230.4l-18.285715-18.139429a12.873143 12.873143 0 0 1 0-18.285714l18.285715-18.212571a12.873143 12.873143 0 0 1 18.212571 0l18.212572 18.285714a12.873143 12.873143 0 0 1 0 18.212571l-18.285715 18.212572a13.019429 13.019429 0 0 1-18.139428 0z" fill="#FB7419" /><path d="M117.467429 399.945143l-9.069715-9.069714a6.436571 6.436571 0 0 1 0-9.069715l9.069715-9.069714a6.436571 6.436571 0 0 1 9.069714 0l9.069714 9.069714a6.436571 6.436571 0 0 1 0 9.069715l-9.069714 9.069714a6.436571 6.436571 0 0 1-9.069714 0z m830.683428-27.648l-18.212571-18.212572a12.873143 12.873143 0 0 1 0-18.212571l18.285714-18.212571a12.873143 12.873143 0 0 1 18.139429 0l18.285714 18.212571a12.873143 12.873143 0 0 1 0 18.285714l-18.285714 18.139429a13.019429 13.019429 0 0 1-18.212572 0z" fill="#598AFF" /><path d="M221.110857 172.178286l-13.677714-13.677715a9.728 9.728 0 0 1 0-13.604571l13.677714-13.677714c3.657143-3.657143 9.947429-3.657143 13.677714 0l13.604572 13.677714c3.657143 3.657143 3.657143 9.874286 0 13.604571l-13.604572 13.677715a9.728 9.728 0 0 1-13.677714 0zM725.942857 67.876571L712.265143 54.272a9.728 9.728 0 0 1 0-13.677714L725.942857 27.062857c3.657143-3.730286 9.874286-3.730286 13.604572 0l13.677714 13.604572c3.657143 3.730286 3.657143 9.947429 0 13.677714l-13.677714 13.604571a9.581714 9.581714 0 0 1-13.604572 0z m222.646857 56.612572l-9.069714-9.069714a6.436571 6.436571 0 0 1 0-9.069715l9.069714-9.069714a6.436571 6.436571 0 0 1 9.069715 0l9.069714 9.069714a6.436571 6.436571 0 0 1 0 9.069715l-9.069714 9.069714a6.436571 6.436571 0 0 1-9.069715 0z" fill="#FB7419" /><path d="M403.456 957.293714c-152.356571 0-291.474286-78.774857-367.616-207.433143 18.285714 2.633143 36.717714 2.633143 52.516571 2.633143a462.848 462.848 0 0 0 462.116572-462.189714c0-62.976-13.165714-123.392-36.790857-178.468571 186.514286 49.810286 320.365714 220.525714 320.365714 414.866285 0 236.251429-194.267429 430.592-430.592 430.592z" fill="#FFE35E" /><path d="M539.940571 135.387429a413.622857 413.622857 0 0 1 278.381715 391.314285 415.744 415.744 0 0 1-414.866286 414.866286 409.526857 409.526857 0 0 1-336.164571-173.348571h21.065142c262.582857 0 477.842286-215.259429 477.842286-477.915429a446.902857 446.902857 0 0 0-26.258286-154.916571m-55.076571-47.250286c31.451429 60.416 49.883429 128.731429 49.883429 202.166857a446.025143 446.025143 0 0 1-446.390858 446.464c-28.891429 0-55.149714-2.633143-81.408-7.899429a445.147429 445.147429 0 0 0 396.434286 244.224A446.025143 446.025143 0 0 0 849.92 526.628571c0-217.965714-157.549714-399.140571-364.982857-438.564571z" fill="#303133" /><path d="M684.397714 487.277714c-5.266286-2.633143-7.899429-7.899429-5.266285-13.165714 5.266286-15.725714-2.633143-39.350857-18.358858-44.617143-15.798857-5.266286-36.790857 7.899429-42.057142 20.992-2.56 5.266286-7.826286 7.899429-13.092572 5.266286-5.266286-2.633143-7.899429-7.826286-5.266286-13.165714 7.899429-23.552 39.424-41.984 68.315429-31.451429 26.258286 10.459429 36.717714 44.617143 28.891429 68.242286a14.409143 14.409143 0 0 1-13.165715 7.899428M518.948571 639.561143a60.269714 60.269714 0 0 1-36.717714-10.459429c-28.891429-21.065143-28.891429-60.416-28.891428-63.049143 0-7.899429 7.826286-15.725714 15.725714-15.725714s15.798857 7.826286 15.798857 15.725714 2.56 28.891429 15.725714 36.790858c10.532571 7.826286 23.625143 7.826286 41.984 0a17.846857 17.846857 0 0 1 21.065143 10.459428 17.846857 17.846857 0 0 1-10.532571 20.992c-13.165714 2.633143-23.625143 5.266286-34.157715 5.266286z" fill="#303133" /><path d="M705.389714 610.742857c-5.266286 18.285714-34.084571 26.185143-62.976 18.285714-28.891429-7.826286-49.956571-31.451429-44.617143-49.810285 5.193143-18.432 34.084571-26.331429 62.902858-18.432 31.597714 10.532571 49.956571 31.524571 44.690285 49.883428" fill="#F79121" /><path d="M755.273143 316.562286c13.165714 39.424 18.432 84.114286 18.432 126.098285 0 238.957714-196.973714 430.592-441.197714 430.592-89.234286 0-173.348571-26.258286-244.150858-70.875428a422.180571 422.180571 0 0 0 317.732572 144.457143c231.058286 0 417.499429-181.248 417.499428-407.04 0-81.408-26.331429-160.182857-68.315428-223.232z" fill="#FFC93F" /><path d="M854.747429 348.745143a30.939429 30.939429 0 0 1-1.462858 27.794286c-6.144 10.24-16.676571 17.261714-35.474285 17.261714-37.741714 0-37.741714-57.051429-75.337143-57.051429-37.741714 0-37.741714 57.051429-75.483429 57.051429-37.522286 0-37.522286-57.051429-75.337143-57.051429-37.522286 0-37.522286 57.051429-75.337142 57.051429h-0.292572a18.505143 18.505143 0 0 1-17.993143-22.674286c8.265143-35.474286 12.580571-72.411429 12.580572-110.299428 0-64.219429-12.507429-125.513143-35.181715-181.833143a14.189714 14.189714 0 0 1 15.579429-19.382857 487.716571 487.716571 0 0 1 363.739429 289.133714z" fill="#598AFF" /><path d="M803.547429 293.156571a36.425143 36.425143 0 0 0 20.260571-4.754285c5.12 8.484571 9.947429 16.969143 14.555429 25.6-7.168 12.507429-13.238857 22.235429-34.816 22.235428-37.814857 0-37.814857-57.051429-75.337143-57.051428-37.814857 0-37.814857 57.051429-75.556572 57.051428-37.522286 0-37.522286-57.051429-75.337143-57.051428-36.571429 0-37.522286 54.345143-72.630857 56.905143 2.267429-14.409143 3.876571-28.964571 4.754286-43.812572 30.500571-6.875429 32.914286-56.246857 67.876571-56.246857 37.814857 0 37.814857 57.051429 75.337143 57.051429 37.814857 0 37.814857-57.051429 75.556572-57.051429 37.522286 0.073143 37.522286 57.124571 75.337143 57.124571z" fill="#FFFFFF" opacity=".396" /><path d="M427.008 51.638857a51.638857 51.638857 0 0 0 103.204571 0 51.638857 51.638857 0 0 0-103.204571 0z" fill="#FB7419" /><path d="M446.390857 51.638857a32.182857 32.182857 0 0 0 64.438857 0 32.182857 32.182857 0 0 0-64.438857 0z" fill="#FFE35E" /></svg>